<?xml version="1.0" encoding="UTF-8" standalone="no"?>
<!-- Created with Inkscape (http://www.inkscape.org/) -->

<svg
   version="1.1"
   id="svg2"
   xml:space="preserve"
   width="386.16"
   height="193.34666"
   viewBox="0 0 386.16 193.34666"
   sodipodi:docname="Ararate LOGO_vert_w.eps"
   xmlns:inkscape="http://www.inkscape.org/namespaces/inkscape"
   xmlns:sodipodi="http://sodipodi.sourceforge.net/DTD/sodipodi-0.dtd"
   xmlns="http://www.w3.org/2000/svg"
   xmlns:svg="http://www.w3.org/2000/svg"><defs
     id="defs6" /><sodipodi:namedview
     id="namedview4"
     pagecolor="#ffffff"
     bordercolor="#666666"
     borderopacity="1.0"
     inkscape:pageshadow="2"
     inkscape:pageopacity="0.0"
     inkscape:pagecheckerboard="0" /><g
     id="g8"
     inkscape:groupmode="layer"
     inkscape:label="ink_ext_XXXXXX"
     transform="matrix(1.3333333,0,0,-1.3333333,0,193.34667)"><g
       id="g10"
       transform="scale(0.1)"><path
         d="m 2495.05,711.563 c -51.27,21.582 -59.38,31.152 -126.62,63.484 -0.77,7.512 -56.42,26.555 -56.93,34.363 -0.89,14.281 -39.47,30.356 -40.47,44.477 -1.68,22.769 -25.83,31.472 -26.71,53.711 -0.31,7.695 -1.8,14.375 -2.16,21.465 -0.41,8.523 0.6,15.585 -0.41,22.988 -0.41,3.301 -2.13,7.715 -3.33,12.691 -1.86,7.485 -2.25,14.367 -3.79,19.043 -5.46,16.365 -15.72,31.055 -24.78,40.515 -2.92,2.98 -6.38,7.62 -8.45,8.74 -5.43,2.85 -10.44,4.05 -15.99,6.34 -4.71,1.91 -9.89,2.14 -14.69,4.78 -2.45,1.34 -4.66,4.64 -7.54,7.11 -7.66,6.53 -13.69,12.25 -19.32,20.66 -4.07,5.9 -6.62,12.97 -10.94,17.45 -4.39,4.55 -8.5,9.47 -13.03,14.27 -2.12,2.2 -3.79,5.61 -5.92,7.95 -2.19,2.48 -4.88,3.13 -7.13,5.55 -2.05,2.21 -3.82,6.11 -5.87,7.96 -2.47,2.14 -5.13,2.29 -7.57,4.77 -2.21,2.17 -3.7,5.73 -5.88,7.89 -2.19,2.24 -4.52,4.3 -6.74,6.35 -13.88,13.18 -27.19,25 -40.34,38.93 -9.49,10.02 -16.99,18.36 -24.42,30.95 -14.77,25.15 -30.2,47.15 -46.64,65.86 -9.07,1.74 -17.72,5.21 -26.9,6.35 -29.99,3.73 -58.75,-0.62 -81.55,17.47 -4.64,3.72 -8.41,9.75 -12.61,13.48 -3.36,3.03 -6.71,3.03 -9.7,5.59 -4.35,3.73 -7.91,11.69 -12.15,16.67 -1.13,1.3 -2.14,1.58 -3.34,3.14 -1.19,1.6 -2.26,2.67 -3.36,3.98 -6.18,7.1 -12.91,9.87 -19.8,15.86 -2.11,1.85 -3.79,5.67 -5.87,7.19 -18.19,13.03 -37.98,21.43 -58.01,30.94 -3.89,1.81 -7.55,5.33 -11.35,7.15 -2.3,1.05 -4.55,0.45 -6.7,1.58 -5.61,2.93 -11.49,8.03 -17.65,9.51 -15.51,16.54 -34.82,40.51 -57.66,27.77 -3.69,-2.05 -6.61,-6.07 -10.47,-8.73 -11.4,-7.87 -20.17,-18.45 -28.99,-30.93 -2.98,-4.15 -6.49,-7.15 -9.23,-11.12 -2.87,-4.12 -5.23,-9.78 -8.02,-13.47 -6.5,-8.74 -12.61,-17.26 -18.07,-25.4 -1.58,-2.36 -2.65,-6.32 -4.21,-8 -1.77,-1.84 -4.13,-1.45 -6.31,-3.95 -2.16,-2.48 -3.92,-6.96 -5.88,-10.29 -6.28,-10.76 -12.57,-18.75 -19.76,-27.01 -11.51,-13.32 -24.2,-27.05 -35.73,-39.67 -2.35,-2.56 -4.41,-6.29 -6.71,-8.74 -2.5,-2.65 -5.54,-3.36 -7.95,-6.34 -11.61,-14.16 -24.3,-25.72 -36.16,-39.71 -6.95,-8.16 -14.96,-15.16 -21.89,-22.98 -11.91,-13.4 -22.73,-29.5 -34.45,-42.86 -9.36,-10.7 -18.01,-23.9 -27.37,-34.16 -4.73,-5.23 -9.41,-11.02 -14.27,-15.88 -4.97,-4.92 -10.2,-9.78 -15.12,-15.06 -2.79,-3.01 -5,-7.63 -7.98,-10.31 -3.1,-2.83 -6.24,-4.74 -9.24,-7.96 -5.72,-5.96 -11.41,-13.05 -17.25,-18.24 -6.45,-5.78 -13.57,-9.15 -20.18,-15.89 -6.15,-6.23 -12.58,-11.99 -18.91,-18.24 -3.3,-3.31 -6.26,-6.32 -9.65,-8.73 -3.67,-2.6 -7.4,-3.05 -11.36,-5.589 -1.61,-1.004 -2.89,-3.687 -4.62,-4.761 -1.88,-1.106 -3.96,-1.211 -5.91,-2.383 -3.62,-2.207 -6.42,-7.153 -9.65,-8.735 -3.28,-1.55 -7.28,-1.402 -10.5,-3.164 -2.08,-1.09 -3.64,-5.625 -5.88,-7.144 -1.53,-1.02 -3.15,0.086 -4.66,-0.742 -5.85,-3.555 -11.93,-10.997 -18.9,-11.157 -5.04,-2.793 -9.73,-6.793 -14.71,-9.539 -5.42,-2.922 -10.92,-3.093 -17.24,-5.539 -7.19,-2.769 -14.86,-8.941 -23.09,-11.121 -8.45,-2.18 -17.03,-9.48 -24.82,-7.922 -6.53,1.301 -17.97,17.074 -22.71,23.039 -7.3,9.114 -15,16.446 -21.85,24.563 -15.02,17.937 -30.16,33.144 -43.69,50.034 -14.137,17.62 -27.902,35.33 -39.527,55.54 -3.083,5.36 -5.79,11.03 -8.829,15.88 -9.8,15.6 -21.699,25.4 -31.121,41.26 -5.722,2.5 -10.183,7.57 -15.968,11.11 -1.915,1.19 -3.524,3.4 -5.465,4.81 -3.782,2.71 -8.364,4.02 -12.192,7.89 -3.242,3.37 -5.175,9.9 -7.976,13.53 -4.657,5.92 -11.028,11.61 -16.817,14.26 -4.953,2.29 -10.793,0.5 -15.965,2.39 -5.375,1.97 -9.875,13.43 -15.988,15.09 -4.363,1.17 -14.773,1.14 -19.316,-1.6 -4.285,-2.56 -5.418,-14.39 -12.188,-13.49 -3.039,-13.02 -10.937,-16.94 -16.015,-26.21 -12.16,-10.49 -24.563,-14.93 -34.004,-29.36 -2.293,-3.49 -5.071,-5.45 -7.188,-7.89 -7.656,-9.06 -13.293,-21.98 -20.984,-30.98 -8.344,-14.88 -18.359,-26.56 -28.137,-38.91 -2.375,-3 -4.648,-6.73 -7.18,-9.56 -1.46,-1.58 -3.132,-1.64 -4.625,-3.13 -1.308,-1.31 -2.05,-4.02 -3.39,-5.54 -2.57,-3.02 -5.985,-4.54 -8.391,-7.96 -0.547,-0.81 -0.281,-3.11 -0.789,-3.96 -0.597,-0.92 -1.824,-0.55 -2.566,-1.58 -1.25,-1.73 -1.977,-4.09 -3.34,-5.55 -2.082,-2.21 -4.699,-2.5 -6.738,-4.77 -2.051,-2.32 -3.696,-6.49 -5.879,-8.73 -2.5,-2.54 -4.907,-4.31 -7.121,-7.145 -2.078,-2.597 -4.168,-5.199 -6.321,-7.968 -2.136,-2.676 -3.804,-7.153 -5.894,-9.504 -1.488,-1.668 -3.574,-0.93 -5.039,-2.395 -1.25,-1.187 -2.317,-4.195 -3.371,-5.562 -2.649,-3.313 -5.086,-6.289 -7.571,-10.324 -4.59,-2.801 -8.047,-8.758 -12.144,-13.465 -4.067,-4.653 -8.684,-7.637 -12.649,-12.696 -7.882,-10.019 -16.511,-17.714 -24.382,-27.785 -11.711,-9.875 -22.598,-22.453 -32.368,-36.511 -9.929,-14.25 -17.566,-32.637 -23.101,-54.786 -0.156,-0.597 0.078,-1.671 0,-2.355 -2.383,-15.438 -46.953,-33.977 -48.227,-51.602 -1.289,-17.254 -68.316,-34.714 -67.488,-51.589 3.547,-3.071 75.195,-1.758 106.824,-1.118 0.039,0.082 0.078,0.16 0.078,0.215 1.274,13.481 44.375,27.641 46.633,39.438 0.117,0.535 -0.129,1.367 0,1.812 5.399,16.938 12.766,30.981 22.395,41.887 9.441,10.73 19.961,20.391 31.289,27.937 7.605,7.676 16.011,13.52 23.574,21.211 3.816,3.879 8.289,6.133 12.195,9.692 3.992,3.633 7.356,8.203 11.809,10.308 2.371,3.071 4.762,5.371 7.332,7.903 1.008,1.015 2.043,3.308 3.23,4.265 1.438,1.137 3.418,0.512 4.907,1.782 1.992,1.824 3.589,5.222 5.664,7.3 2.078,2.121 4.082,4.082 6.074,6.086 2.207,2.121 4.527,3.516 6.941,5.457 2.149,1.703 3.699,4.914 5.696,6.684 1.968,1.719 4.5,1.961 6.503,3.633 1.305,1.101 2.032,2.886 3.243,4.226 0.75,0.813 1.941,0.508 2.461,1.223 0.488,0.684 0.254,2.422 0.82,3.047 2.234,2.617 5.601,3.789 8.101,6.074 1.25,1.109 2.004,3.223 3.286,4.234 1.464,1.164 3.035,1.223 4.429,2.446 2.485,2.09 4.629,4.976 6.938,7.261 9.441,9.426 19.195,18.372 27.234,29.731 7.449,6.855 12.91,16.734 20.321,23.633 2.035,1.914 4.718,3.433 6.917,6.082 9.129,11.058 21.141,14.428 32.918,22.448 4.915,7.09 12.52,10.07 15.497,20.06 6.554,-0.71 7.628,8.31 11.781,10.32 4.375,2.05 14.469,2.05 18.672,1.21 5.918,-1.25 10.261,-10.04 15.449,-11.53 5.016,-1.43 10.683,-0.09 15.469,-1.85 5.601,-1.99 11.812,-6.35 16.25,-10.88 2.754,-2.8 4.578,-7.77 7.754,-10.31 3.691,-3.01 8.125,-4.03 11.793,-6.08 1.859,-1.08 3.402,-2.74 5.253,-3.63 5.61,-2.72 9.914,-6.602 15.461,-8.536 9.161,-12.129 20.606,-19.609 30.11,-31.562 2.926,-3.692 5.574,-8.02 8.551,-12.109 11.202,-15.469 24.532,-29.028 38.212,-42.5 13.1,-12.911 27.73,-24.536 42.28,-38.215 6.6,-6.2 14.06,-11.805 21.15,-18.809 4.56,-4.519 15.65,-16.57 21.94,-17.59 7.54,-1.187 15.79,4.36 23.97,6.086 8.02,1.633 15.44,6.375 22.41,8.469 6.08,1.875 11.39,1.988 16.63,4.258 4.84,2.058 9.36,5.125 14.25,7.273 6.7,0.125 12.65,5.813 18.31,8.496 1.4,0.684 2.98,-0.183 4.47,0.598 2.17,1.187 3.68,4.617 5.69,5.484 3.13,1.34 6.94,1.211 10.16,2.414 3.11,1.192 5.78,5 9.36,6.668 1.85,0.903 3.86,0.989 5.7,1.821 1.64,0.82 2.89,2.859 4.43,3.652 3.88,1.934 7.44,2.254 11,4.273 3.32,1.829 6.15,4.125 9.34,6.653 6.11,4.797 12.36,9.187 18.3,13.957 6.44,5.152 13.3,7.715 19.52,12.129 5.63,3.965 11.18,9.39 16.69,13.945 2.89,2.441 5.94,3.941 8.92,6.094 2.86,2.051 5,5.535 7.74,7.847 4.74,4.067 9.8,7.754 14.65,11.543 4.66,3.696 9.18,8.149 13.79,12.168 9,7.817 17.38,17.914 26.46,26.063 11.33,10.25 21.78,22.52 33.33,32.78 6.71,5.97 14.42,11.36 21.14,17.59 11.48,10.66 23.77,19.51 34.96,30.36 2.32,2.27 5.3,2.8 7.72,4.83 2.23,1.86 4.23,4.71 6.52,6.68 11.15,9.63 23.38,20.15 34.56,30.34 6.94,6.32 13.02,12.38 19.09,20.64 1.92,2.55 3.63,5.97 5.74,7.86 2.03,1.9 4.35,1.61 6.08,3.07 1.49,1.2 2.57,4.23 4.05,6.02 5.3,6.25 11.21,12.76 17.46,19.43 2.75,2.86 4.99,7.16 7.76,10.35 2.67,3.01 6.1,5.31 8.93,8.46 8.56,9.57 17,17.66 28.09,23.68 3.69,2.05 6.55,5.09 10.14,6.68 22.08,9.7 40.77,-8.63 55.73,-21.25 5.96,-1.14 11.62,-5.02 17.05,-7.29 2.09,-0.83 4.33,-0.41 6.49,-1.19 3.7,-1.37 7.22,-4.06 10.99,-5.45 19.37,-7.28 38.5,-13.71 56.08,-23.67 2.07,-1.17 3.72,-4.08 5.76,-5.48 6.65,-4.6 13.15,-6.71 19.07,-12.14 1.11,-1.01 2.12,-1.82 3.25,-3.01 1.2,-1.22 2.21,-1.42 3.25,-2.42 4.09,-3.81 7.57,-9.89 11.84,-12.75 2.86,-1.98 6.05,-2 9.32,-4.29 4.09,-2.86 7.7,-7.46 12.2,-10.32 22.05,-13.78 49.85,-10.49 78.87,-13.32 8.88,-0.86 17.26,-3.52 26.05,-4.86 15.85,-14.31 30.8,-31.12 45.13,-50.38 7.15,-9.59 14.4,-15.97 23.58,-23.63 12.71,-10.64 25.61,-19.71 39.01,-29.75 2.15,-1.58 4.4,-3.125 6.51,-4.832 2.13,-1.726 3.56,-4.433 5.7,-6.074 2.37,-1.875 4.93,-2 7.31,-3.645 2,-1.406 3.73,-4.375 5.7,-6.074 2.2,-1.851 4.77,-2.383 6.92,-4.234 2.03,-1.817 3.66,-4.414 5.66,-6.074 4.44,-3.704 8.41,-7.454 12.64,-10.942 4.18,-3.394 6.67,-8.805 10.54,-13.316 5.52,-6.418 11.32,-10.774 18.73,-15.781 2.8,-1.907 4.92,-4.434 7.3,-5.493 4.69,-1.992 9.63,-2.136 14.24,-3.648 5.34,-1.738 10.21,-2.656 15.48,-4.824 1.97,-0.821 5.3,-4.36 8.1,-6.692 8.83,-7.215 18.72,-18.418 23.97,-30.937 1.55,-3.606 1.91,-8.86 3.7,-14.551 1.2,-3.816 2.84,-7.18 3.21,-9.719 0.99,-5.625 0,-11.082 0.42,-17.613 0.37,-5.395 1.76,-10.488 2.06,-16.359 0.86,-17.024 24.24,-23.672 25.84,-41.075 0.97,-10.82 38.27,-23.078 39.15,-34.011 0.5,-5.957 54.33,-20.508 55.1,-26.235 9.69,-3.687 17.82,-6.929 25.34,-9.922 40.77,-0.156 117.89,-0.269 123.88,1.704"
         style="fill:#ffffff;fill-opacity:1;fill-rule:nonzero;stroke:none"
         id="path12" /><path
         d="m 108.059,269.672 c 0,-126.211 39.546,-158.363 97.254,-158.363 57.761,0 95.671,54.41 95.671,158.363 H 108.059 Z M 338.977,125.352 C 312.559,92.3203 254.016,80.7617 205.313,80.7617 79.168,80.7617 0,172.32 0,300.16 h 300.984 v 6.578 c 0,61.852 -37.07,131.133 -95.671,131.133 h -43.672 c -25.578,0 -60.246,-32.973 -60.246,-73.383 H 73.3906 v 177.289 h 28.0044 c 0,-57.734 41.261,-65.16 46.21,-67.629 12.407,-6.589 43.696,-5.75 57.708,-5.75 113.007,0 205.371,-58.558 205.371,-161.66 V 170.699 c 0,-33.008 13.171,-48.668 50.324,-48.668 V 91.5391 c -60.215,0 -92.387,9.8589 -122.031,33.8129 v 0"
         style="fill:#ffffff;fill-opacity:1;fill-rule:nonzero;stroke:none"
         id="path14" /><path
         d="m 719.133,408.18 c -0.84,23.101 -17.324,47.843 -49.477,47.843 -36.304,0 -48.672,-48.644 -48.672,-98.132 V 92.3203 H 511.316 V 357.891 c 0,75.039 80.762,127.847 158.34,127.847 87.395,0 147.602,-52.808 147.602,-143.527 -103.906,0 -97.324,34.641 -98.125,65.969 v 0"
         style="fill:#ffffff;fill-opacity:1;fill-rule:nonzero;stroke:none"
         id="path16" /><path
         d="m 950.852,269.672 c 0,-126.211 39.586,-158.363 97.288,-158.363 57.77,0 95.68,54.41 95.68,158.363 H 950.852 Z M 1181.75,125.352 C 1155.4,92.3203 1096.79,80.7617 1048.14,80.7617 922.004,80.7617 842.832,172.32 842.832,300.16 h 300.988 v 6.578 c 0,61.852 -37.1,131.133 -95.68,131.133 h -43.66 c -25.601,0 -60.242,-32.973 -60.242,-73.383 h -28.015 v 177.289 h 28.015 c 0,-57.734 41.25,-65.16 46.2,-67.629 12.342,-6.589 43.702,-5.75 57.702,-5.75 113,0 205.38,-58.558 205.38,-161.66 V 170.699 c 0,-33.008 13.17,-48.668 50.28,-48.668 V 91.5391 c -60.18,0 -92.37,9.8589 -122.05,33.8129 v 0"
         style="fill:#ffffff;fill-opacity:1;fill-rule:nonzero;stroke:none"
         id="path18" /><path
         d="m 1561.93,408.18 c -0.81,23.101 -17.31,47.843 -49.49,47.843 -36.26,0 -48.66,-48.644 -48.66,-98.132 V 92.3203 H 1354.07 V 357.891 c 0,75.039 80.85,127.847 158.37,127.847 87.4,0 147.62,-52.808 147.62,-143.527 -103.88,0 -97.33,34.641 -98.13,65.969 v 0"
         style="fill:#ffffff;fill-opacity:1;fill-rule:nonzero;stroke:none"
         id="path20" /><path
         d="m 1793.66,269.672 c 0,-126.211 39.61,-158.363 97.31,-158.363 57.71,0 95.66,54.41 95.66,158.363 h -192.97 z m 230.91,-144.32 c -26.39,-33.0317 -84.94,-44.5903 -133.6,-44.5903 -126.2,0 -205.36,91.5583 -205.36,219.3983 h 301.02 v 6.578 c 0,61.852 -37.11,131.133 -95.66,131.133 h -43.69 c -25.57,0 -60.22,-32.973 -60.22,-73.383 h -28.04 v 177.289 h 28.04 c 0,-57.734 41.27,-65.16 46.21,-67.629 12.33,-6.589 43.69,-5.75 57.7,-5.75 112.97,0 205.32,-58.558 205.32,-161.66 V 170.699 c 0,-33.008 13.23,-48.668 50.34,-48.668 V 91.5391 c -60.24,0 -92.36,9.8589 -122.06,33.8129 v 0"
         style="fill:#ffffff;fill-opacity:1;fill-rule:nonzero;stroke:none"
         id="path22" /><path
         d="m 2408.84,453.543 c -31.29,-1.633 -55.26,-29.684 -55.26,-65.984 V 196.25 c 0,-32.148 14.02,-73.379 58.6,-72.602 V 92.3203 c -78.35,0 -168.22,30.5507 -168.22,103.9297 v 191.309 c 0,31.339 -4.96,64.351 -34.67,65.984 -11.54,0.84 -23.88,0 -61.85,0 v 31.328 h 96.52 v 60.215 l 109.62,75.027 V 484.871 h 121.26 v -31.328 c -37.95,0 -52.76,0.84 -66,0 v 0"
         style="fill:#ffffff;fill-opacity:1;fill-rule:nonzero;stroke:none"
         id="path24" /><path
         d="m 2690.88,455.215 c 56.1,0 97.35,-77.524 97.35,-158.363 h -194.68 c 0,83.296 41.24,158.363 97.33,158.363 z m 37.92,-351.344 h -37.92 c -75.85,0 -94.82,103.078 -97.33,162.488 h 302.67 c 0,127.813 -79.17,219.379 -205.34,219.379 -132.75,0 -206.98,-98.179 -206.98,-205.367 0,-106.43 74.23,-207.0116 206.98,-207.0116 43.7,0 95.65,1.6601 95.65,-73.3594 h 36.33 v 193.77 h -36.33 c 0.8,-57.7 -37.07,-89.899 -57.73,-89.899"
         style="fill:#ffffff;fill-opacity:1;fill-rule:nonzero;stroke:none"
         id="path26" /></g></g></svg>
